<?xml version="1.0" encoding="UTF-8"?>
<svg width="40px" height="40px" viewBox="0 0 40 40" version="1.1" xmlns="http://www.w3.org/2000/svg" xmlns:xlink="http://www.w3.org/1999/xlink">
    <!-- Generator: Sketch 61.2 (89653) - https://sketch.com -->
    <title>pcx</title>
    <desc>Created with Sketch.</desc>
    <defs>
        <polygon id="path-1" points="0 0.142507024 17.8092494 0.142507024 17.8092494 17.5883023 0 17.5883023"></polygon>
        <path d="M2.8735287,3.21133234 C2.64040724,3.33096913 2.42068791,3.48629354 2.22380882,3.67693578 L0.143081834,1.63885752 C1.74831655,0.0741489186 4.07009301,-0.352993231 6.06814209,0.356876341 C6.2299114,0.414568268 6.39073689,0.478732046 6.54816466,0.552141324 C7.06990369,0.792524352 7.56125199,1.11685653 8.00220076,1.52273403 L5.9188311,3.56358593" id="path-3"></path>
    </defs>
    <g id="页面-1" stroke="none" stroke-width="1" fill="none" fill-rule="evenodd">
        <g id="官网-中文备份" transform="translate(-121.000000, -948.000000)">
            <g id="编组-11" transform="translate(100.000000, 924.000000)">
                <g id="pcx" transform="translate(21.000000, 24.000000)">
                    <rect id="矩形" fill="#FFFFFF" x="0" y="0" width="40" height="40" rx="6"></rect>
                    <g id="Group-6" transform="translate(6.000000, 6.000000)">
                        <g id="Group-3">
                            <mask id="mask-2" fill="white">
                                <use xlink:href="#path-1"></use>
                            </mask>
                            <g id="Clip-2"></g>
                            <path d="M16.1434837,8.07739843 L11.6822854,3.70724497 C11.5933307,3.62029153 11.4493722,3.62029153 11.3606072,3.70724497 L9.5909979,5.4407398 C9.50223293,5.52769323 9.50223293,5.66871387 9.5909979,5.75585311 L14.0083827,10.0830872 C15.0883565,11.1408349 15.1168068,12.9001557 14.0188145,13.9400668 C12.9519279,14.950436 11.2449093,14.9398455 10.1916788,13.9079237 L3.75697727,7.60472846 C2.70374679,6.57280667 2.692746,4.90062517 3.72416458,3.85551173 C4.78574049,2.77992743 6.58171375,2.80798292 7.66168753,3.86573062 L8.30409553,4.49521405 C8.39305017,4.58216749 8.53700874,4.58216749 8.62577371,4.49521405 L10.395383,2.76190503 C10.484148,2.67476579 10.484148,2.53374515 10.395383,2.44660592 L9.70897186,1.77420315 C7.48795097,-0.401490779 3.88690036,-0.401490779 1.6656898,1.77420315 C-0.55533109,3.94989709 -0.55533109,7.47745687 1.6656898,9.6531508 L8.10039131,15.9565319 C10.3214122,18.1322258 13.9224628,18.1322258 16.1434837,15.9565319 L16.1434837,15.9563461 C18.3645046,13.7806521 18.3645046,10.2532782 16.1434837,8.07739843" id="Fill-1" fill="#EA754B" mask="url(#mask-2)"></path>
                        </g>
                        <path d="M26.3422059,1.63805363 C24.130492,-0.546017875 20.5452608,-0.546017875 18.3348687,1.63805363 L14,5.91910976 L16.0710389,7.96462549 C16.0746266,7.96798216 16.0780254,7.97133883 16.0812355,7.97469549 L20.4162929,3.69363936 C21.4761709,2.64803751 23.2009037,2.64803751 24.2596486,3.69363936 C25.3195266,4.74054659 25.3195266,6.44386874 24.2596486,7.49058948 L23.5774219,8.16416071 C23.4890515,8.25143406 23.4890515,8.39316001 23.5774219,8.48043336 L25.3391644,10.2201194 C25.4275348,10.3075792 25.5710422,10.3075792 25.6594126,10.2201194 L26.3422059,9.54598874 C28.552598,7.36173076 28.552598,3.82231161 26.3422059,1.63805363" id="Fill-4" fill="#34C69A"></path>
                        <path d="M23.2023612,9.48187883 C23.1112462,9.39277612 22.9637913,9.39277612 22.8728705,9.48187883 L18.3021588,13.9508834 C18.0970042,14.151317 17.8675652,14.3145137 17.6227785,14.4397135 C16.5684472,14.9796493 15.233194,14.8168326 14.3476879,13.9508834 C14.3441909,13.9474637 14.3395283,13.9429041 14.337197,13.9394844 C13.261884,12.8765213 13.261884,11.1571619 14.337197,10.0941988 L12.1957019,8 C10.4202212,9.74329746 10.0392476,12.3318358 11.0516154,14.4397135 C11.330206,15.020686 11.7158422,15.5665113 12.2061927,16.0462221 C12.8296217,16.6558823 13.5600963,17.0977861 14.337197,17.3734536 C14.9781108,17.6001051 15.6514685,17.7142857 16.3248262,17.7142857 C17.8160823,17.7142857 19.3063671,17.1582012 20.4446253,16.0462221 L25.0151428,11.5766476 C25.1060635,11.4879248 25.1060635,11.3435366 25.0151428,11.2544339 L23.2023612,9.48187883 Z" id="Fill-6" fill="#34C69A"></path>
                        <path d="M26.3280788,18.5434923 L21.958393,14.2857143 L19.8596874,16.3306719 L24.2293733,20.5884499 C25.287197,21.6193682 25.2970957,23.2890923 24.2615439,24.3322526 C23.1961058,25.4050902 21.3939792,25.3767112 20.3106474,24.3211236 L19.6655215,23.6928903 C19.5764336,23.6058985 19.4319513,23.6058985 19.3428634,23.6928903 L17.5668159,25.4232676 C17.477728,25.5102595 17.477728,25.6508561 17.5668159,25.7378479 L18.1843398,26.339557 C20.4204844,28.5182484 24.13743,28.5746354 26.3575844,26.3801779 C27.4527185,25.2976952 28,23.8867208 28,22.4770448 C28,21.053272 27.4428198,19.6294992 26.3280788,18.5434923" id="Fill-8" fill="#F6C94A"></path>
                        <path d="M18.9031692,22.7289363 C18.9941264,22.6396737 18.9941264,22.4952168 18.9031692,22.4061445 L14.3415374,17.9293113 C14.1367382,17.728518 13.969757,17.5031728 13.8423393,17.2635531 C13.2921352,16.2312284 13.457371,14.9229318 14.3415374,14.0554288 L14.3522041,14.0447706 C15.4376789,12.9907487 17.1928239,12.9907487 18.2782988,14.0447706 L20.4166667,11.9464334 C18.6353399,10.2078112 15.9929253,9.83420256 13.8423393,10.8261784 C13.248499,11.0989146 12.6932526,11.4757588 12.2031695,11.956711 C11.5806263,12.5678458 11.1291371,13.2821369 10.8487018,14.0447706 C10.6159753,14.6718927 10.5,15.333083 10.5,15.9931313 C10.5,17.4538785 11.0682403,18.9140547 12.2031695,20.0278387 L16.7649952,24.5044816 C16.8557585,24.5937442 17.002958,24.5937442 17.0939152,24.5044816 L18.9031692,22.7289363 Z" id="Fill-10" fill="#F6C94A"></path>
                        <path d="M17.7422437,14.0596849 C17.6817272,13.8909929 17.6120944,13.7247705 17.5329574,13.5606377 C17.2559779,12.9785742 16.8709608,12.4339345 16.3802339,11.954264 C15.8928042,11.4757334 15.3390392,11.0997857 14.7480332,10.8275609 C14.5864618,10.7523333 14.4212052,10.6862243 14.2549787,10.6271441 C12.2018778,9.89804498 9.81613002,10.3364923 8.16666667,11.9440057 L10.3045295,14.0380285 C10.5070271,13.841981 10.7326063,13.6825975 10.9723449,13.5594979 C12.0261471,13.0205572 13.3592565,13.1837402 14.2421771,14.0482868 L14.2526511,14.0585451 C15.1330502,14.9301206 15.292488,16.242423 14.7284429,17.2724323 C14.6050823,17.5002045 14.4468083,17.7131592 14.2526511,17.9046474 L16.3918716,20 C18.0250421,18.3911568 18.4763945,16.0648025 17.7422437,14.0596849" id="Fill-12" fill="#46AEE2"></path>
                        <path d="M5.71566725,18.2185961 L8.16666667,15.8176075 L6.01970492,13.7142857 L3.56851073,16.1150835 C3.47716309,16.2043836 3.47716309,16.3494008 3.56851073,16.4387009 L5.38533548,18.2185961 C5.47648835,18.308087 5.62451438,18.308087 5.71566725,18.2185961" id="Fill-14" fill="#46AEE2"></path>
                        <path d="M7.58426364,24.3041275 C6.52425764,25.351375 4.79962372,25.351375 3.74093942,24.3041275 C2.68112223,23.25688 2.68112223,21.5538201 3.74093942,20.5065726 L4.41840674,19.8369536 C4.50696086,19.7496363 4.50696086,19.6078391 4.41840674,19.5203352 L2.65695395,17.7797737 C2.56858864,17.6924564 2.42527825,17.6924564 2.33672413,17.7797737 L1.65869037,18.4497658 C-0.552896789,20.635123 -0.552896789,24.1763234 1.65869037,26.3616806 C2.76495598,27.4538927 4.21316511,28.0009317 5.66137423,28 C7.11090506,28 8.56024708,27.4538927 9.66651269,26.3616806 L14,22.07847 L11.9188838,20.0220364 L7.58426364,24.3041275 Z" id="Fill-16" fill="#46AEE2"></path>
                        <g id="Group-29" transform="translate(8.166667, 10.285714)">
                            <mask id="mask-4" fill="white">
                                <use xlink:href="#path-3"></use>
                            </mask>
                            <g id="Clip-28"></g>
                            <path d="M2.8735287,3.21133234 C3.8462209,2.71373947 5.06279401,2.83189698 5.9188311,3.56358593 L8.00220076,1.52273403 C7.56125199,1.11685653 7.06990369,0.792524352 6.54816466,0.552141324 C6.39073689,0.478732046 6.2299114,0.414568268 6.06814209,0.356876341 C4.07009301,-0.352993231 1.74831655,0.0741489186 0.143081834,1.63885752 L2.22380882,3.67693578 C2.42068791,3.48629354 2.64040724,3.33096913 2.8735287,3.21133234" id="Fill-27" mask="url(#mask-4)"></path>
                        </g>
                    </g>
                </g>
            </g>
        </g>
    </g>
</svg>