<?xml version="1.0" encoding="UTF-8"?>
<svg width="40px" height="40px" viewBox="0 0 40 40" version="1.1" xmlns="http://www.w3.org/2000/svg" xmlns:xlink="http://www.w3.org/1999/xlink">
    <!-- Generator: Sketch 61.2 (89653) - https://sketch.com -->
    <title>SDOT</title>
    <desc>Created with Sketch.</desc>
    <g id="页面-1" stroke="none" stroke-width="1" fill="none" fill-rule="evenodd">
        <g id="官网-中文备份" transform="translate(-949.000000, -948.000000)" fill-rule="nonzero">
            <g id="编组-8" transform="translate(925.000000, 924.000000)">
                <g id="SDOT" transform="translate(24.000000, 24.000000)">
                    <path d="M6,0 L34,0 C37.3137085,-6.08718376e-16 40,2.6862915 40,6 L40,34 C40,37.3137085 37.3137085,40 34,40 L6,40 C2.6862915,40 4.05812251e-16,37.3137085 0,34 L0,6 C-4.05812251e-16,2.6862915 2.6862915,6.08718376e-16 6,0 Z" id="矩形" fill="#F2F2F2" transform="translate(20.000000, 20.000000) rotate(-90.000000) translate(-20.000000, -20.000000) "></path>
                    <circle id="椭圆形" fill="#4D4D4D" cx="7" cy="27" r="2"></circle>
                    <circle id="椭圆形" fill="#4D4D4D" cx="7" cy="21" r="2"></circle>
                    <circle id="椭圆形" fill="#4D4D4D" cx="7" cy="14" r="2"></circle>
                    <circle id="椭圆形" fill="#4D4D4D" cx="14" cy="31" r="2"></circle>
                    <circle id="椭圆形" fill="#4D4D4D" cx="14" cy="24" r="2"></circle>
                    <circle id="椭圆形" fill="#4D4D4D" cx="14" cy="17" r="2"></circle>
                    <circle id="椭圆形" fill="#4D4D4D" cx="14" cy="10" r="2"></circle>
                    <circle id="椭圆形" fill="#4D4D4D" cx="20" cy="34" r="2"></circle>
                    <circle id="椭圆形" fill="#4D4D4D" cx="20" cy="27" r="2"></circle>
                    <circle id="椭圆形" fill="#D64CA8" cx="20" cy="21" r="2"></circle>
                    <circle id="椭圆形" fill="#4D4D4D" cx="20" cy="14" r="2"></circle>
                    <circle id="椭圆形" fill="#4D4D4D" cx="20" cy="6" r="2"></circle>
                    <circle id="椭圆形" fill="#4D4D4D" cx="26" cy="31" r="2"></circle>
                    <circle id="椭圆形" fill="#4D4D4D" cx="26" cy="24" r="2"></circle>
                    <circle id="椭圆形" fill="#4D4D4D" cx="26" cy="17" r="2"></circle>
                    <circle id="椭圆形" fill="#4D4D4D" cx="26" cy="10" r="2"></circle>
                    <circle id="椭圆形" fill="#4D4D4D" cx="32" cy="27" r="2"></circle>
                    <circle id="椭圆形" fill="#4D4D4D" cx="32" cy="21" r="2"></circle>
                    <circle id="椭圆形" fill="#4D4D4D" cx="32" cy="14" r="2"></circle>
                </g>
            </g>
        </g>
    </g>
</svg>