<?xml version="1.0" encoding="UTF-8"?>
<svg width="40px" height="40px" viewBox="0 0 40 40" version="1.1" xmlns="http://www.w3.org/2000/svg" xmlns:xlink="http://www.w3.org/1999/xlink">
    <!-- Generator: Sketch 61.2 (89653) - https://sketch.com -->
    <title>xbtc</title>
    <desc>Created with Sketch.</desc>
    <g id="页面-1" stroke="none" stroke-width="1" fill="none" fill-rule="evenodd">
        <g id="官网-中文备份" transform="translate(-399.000000, -948.000000)">
            <g id="编组-10" transform="translate(375.000000, 924.000000)">
                <g id="xbtc" transform="translate(24.000000, 24.000000)">
                    <path d="M34,0 C37.3137085,-6.08718376e-16 40,2.6862915 40,6 L40,34 C40,37.3137085 37.3137085,40 34,40 L6,40 C2.6862915,40 4.05812251e-16,37.3137085 0,34 L0,6 C-4.05812251e-16,2.6862915 2.6862915,6.08718376e-16 6,0 L34,0 Z" id="形状结合" fill="#F7931A"></path>
                    <g id="BTC_Logo" fill="#FFFFFF" fill-rule="nonzero">
                        <path d="M28.82,17.1506 C29.2176,14.4892 27.1912,13.0584 24.42,12.104 L25.32,8.499 L23.1248,7.9522 L22.248,11.4624 C21.6716,11.3188 21.0792,11.1824 20.4904,11.0488 L21.3704,7.5154 L19.1774,6.9686 L18.28,10.5722 L13.8536,9.4758 L13.2696,11.82 C13.2696,11.82 14.898,12.1932 14.8636,12.2164 C15.7524,12.4384 15.9136,13.0264 15.8864,13.4928 L13.4236,23.3688 C13.3148,23.6388 13.0392,24.0436 12.418,23.8888 C12.44,23.9208 10.8228,23.4888 10.8228,23.4888 L9.7332,26.0046 L14.1532,27.1206 L13.2448,30.7676 L15.4368,31.3144 L16.3368,27.7066 C16.9368,27.869 17.5168,28.019 18.0852,28.1602 L17.1888,31.7512 L19.3836,32.298 L20.292,28.658 C24.0346,29.366 26.849,29.0804 28.032,25.698 C28.9864,22.973 27.9852,21.401 26.016,20.3754 C27.45,20.0434 28.53,19.1006 28.8182,17.152 M23.804,24.1824 C23.124,26.9074 18.537,25.4348 17.0486,25.0648 L18.2538,20.2338 C19.7414,20.605 24.5116,21.3402 23.8048,24.182 M24.4848,17.112 C23.866,19.592 20.0466,18.332 18.807,18.0228 L19.8982,13.64 C21.1382,13.9496 25.1284,14.526 24.4832,17.1118" id="形状"></path>
                    </g>
                </g>
            </g>
        </g>
    </g>
</svg>