<?xml version="1.0" encoding="UTF-8"?>
<svg width="53px" height="48px" viewBox="0 0 53 48" version="1.1" xmlns="http://www.w3.org/2000/svg"
     xmlns:xlink="http://www.w3.org/1999/xlink">
    <!-- Generator: Sketch 61.2 (89653) - https://sketch.com -->
    <title>资产跨链</title>
    <desc>Created with Sketch.</desc>
    <g id="页面-1" stroke="none" stroke-width="1" fill="none" fill-rule="evenodd">
        <g id="官网-中文备份" transform="translate(-124.000000, -1452.000000)" stroke="#F6C94A" stroke-width="7">
            <g id="资产跨链" transform="translate(124.000000, 1447.000000)">
                <path d="M4.5197306,8.79997028 C4.42763266,8.71412049 4.30653651,8.66617661 4.18063176,8.66571569 C3.90449124,8.66470478 3.67981561,8.88774141 3.67880471,9.16388193 L3.53413846,48.6811012 C3.53366853,48.8094677 3.58258762,48.9330977 3.67076466,49.0263875 C3.86045009,49.2270714 4.176907,49.2359875 4.37759095,49.0463021 L25.4988633,29.0825858 C25.5065269,29.0753422 25.5139593,29.0678581 25.5211495,29.0601445 C25.7094396,28.8581508 25.6983305,28.5417633 25.4963367,28.3534732 L4.5197306,8.79997028 Z"
                      id="多边形备份-6"></path>
                <path d="M48.4802694,8.79997028 L27.5036633,28.3534732 C27.3016695,28.5417633 27.2905604,28.8581508 27.4788505,29.0601445 C27.4860407,29.0678581 27.4934731,29.0753422 27.5011367,29.0825858 L48.622409,49.0463021 C48.823093,49.2359875 49.1395499,49.2270714 49.3292353,49.0263875 C49.4174124,48.9330977 49.4663315,48.8094677 49.4658615,48.6811012 L49.3211953,9.16388193 C49.3201844,8.88774141 49.0955088,8.66470478 48.8193682,8.66571569 C48.6934635,8.66617661 48.5723673,8.71412049 48.4802694,8.79997028 Z"
                      id="多边形备份-7"></path>
            </g>
        </g>
    </g>
</svg>
