<svg xmlns="http://www.w3.org/2000/svg" xmlns:xlink="http://www.w3.org/1999/xlink" width="120" height="25" viewBox="0 0 120 25">
  <defs>
    <polygon id="chainx-logo-white-a" points="0 0 15.005 0 15.005 15.011 0 15.011"/>
    <polygon id="chainx-logo-white-c" points="0 .36 11.849 .36 11.849 9.173 0 9.173"/>
    <polygon id="chainx-logo-white-e" points=".088 .022 17.487 .022 17.487 19.973 .088 19.973"/>
  </defs>
  <g fill="none" fill-rule="evenodd">
    <mask id="chainx-logo-white-b" fill="#fff">
      <use xlink:href="#chainx-logo-white-a"/>
    </mask>
    <path fill="#EA754B" fill-rule="nonzero" d="M13.6013067,6.82738901 L9.84264811,3.06720152 C9.76773484,2.99228825 9.64619188,2.99228825 9.57166082,3.06720152 L8.08065744,4.55858713 C8.00574416,4.63350039 8.00574416,4.75504335 8.08065744,4.82957441 L11.8022416,8.55306968 C12.712285,9.46311303 12.7363642,10.9770491 11.8114147,11.871804 C10.9124555,12.7409508 9.47419713,12.7317778 8.58670421,11.8439027 L3.16542963,6.42071697 C2.27793672,5.53284184 2.26876366,4.09420129 3.13791047,3.19485985 C4.03190097,2.26914588 5.54545478,2.29322513 6.45511592,3.20365069 L6.99632608,3.74524305 C7.07123934,3.82015632 7.1927823,3.82015632 7.26769557,3.74524305 L8.75831676,2.25385745 C8.83323003,2.17894418 8.83323003,2.05740122 8.75831676,1.98248795 L8.18003218,1.40420338 C6.30872928,-0.467863947 3.27474185,-0.467863947 1.40343896,1.40420338 C-0.467863947,3.27588849 -0.467863947,6.31102254 1.40343896,8.18308986 L6.82471354,13.6066577 C8.69601643,15.478725 11.7300038,15.478725 13.6013067,13.6066577 C15.4726097,11.7345904 15.4726097,8.69945633 13.6013067,6.82738901" mask="url(#chainx-logo-white-b)"/>
    <path fill="#34C69A" fill-rule="nonzero" d="M22.2938069,1.40439448 C20.4221217,-0.468055051 17.3881343,-0.468055051 15.5172136,1.40439448 L11.8483745,5.07438028 L13.6015743,6.82758012 C13.6042498,6.8306378 13.6069253,6.83369548 13.609983,6.83637096 L17.2784399,3.16638516 C18.1758703,2.2701014 19.6351502,2.2701014 20.531434,3.16638516 C21.4280999,4.06381556 21.4280999,5.52385989 20.531434,6.42129029 L19.9539138,6.99881044 C19.8790005,7.07372372 19.8790005,7.19526667 19.9539138,7.27017994 L21.4449172,8.76156555 C21.5198305,8.83647881 21.6409912,8.83647881 21.7159044,8.76156555 L22.2938069,8.18328097 C24.1643453,6.31121365 24.1643453,3.2764618 22.2938069,1.40439448"/>
    <path fill="#34C69A" fill-rule="nonzero" d="M19.1405697,8.08337113 C19.0656564,8.00845785 18.9444957,8.00845785 18.8695825,8.08337113 L15.1097772,11.8439408 C14.9412223,12.0124957 14.7524103,12.1497093 14.5513675,12.2551994 C13.6837495,12.7096477 12.5856586,12.5724341 11.8571654,11.8439408 C11.8544899,11.8412654 11.8506677,11.837061 11.8483745,11.8343856 C10.9639392,10.9400129 10.9639392,9.49296367 11.8483745,8.59859096 L10.0871482,6.83660028 C8.62672166,8.30352441 8.313309,10.4813602 9.14614581,12.2551994 C9.37508993,12.7440467 9.69232469,13.2034638 10.0955568,13.6070781 C10.6084834,14.1200048 11.2093184,14.4918956 11.8483745,14.7238974 C12.3758251,14.9146204 12.9296482,15.0105553 13.4834713,15.0105553 C14.7103671,15.0105553 15.9361164,14.5427296 16.8721501,13.6070781 L20.6315731,9.84612623 C20.7064864,9.77121295 20.7064864,9.65005221 20.6315731,9.57513894 L19.1405697,8.08337113 Z"/>
    <path fill="#F6C94A" fill-rule="nonzero" d="M22.2936157,15.5226792 L18.625541,11.8530757 L16.8635503,13.6154486 L20.5316251,17.2850521 C21.4198825,18.1736917 21.428291,19.6127145 20.558762,20.5116737 C19.6643893,21.4366232 18.1515999,21.4121617 17.2419388,20.5021184 L16.7007286,19.9605261 C16.6258153,19.8859949 16.5046546,19.8859949 16.4297414,19.9605261 L14.938738,21.4522939 C14.8638247,21.5268249 14.8638247,21.6483678 14.938738,21.7232811 L15.4570154,22.2419408 C17.3344338,24.1197413 20.4544186,24.168282 22.3180772,22.2771042 C23.2376759,21.3437461 23.6970929,20.1279342 23.6970929,18.9128869 C23.6970929,17.685991 23.2296494,16.4587129 22.2936157,15.5226792"/>
    <path fill="#F6C94A" fill-rule="nonzero" d="M15.6165119,19.1471437 C15.6914252,19.0722304 15.6914252,18.9510698 15.6165119,18.8761565 L11.8578533,15.115969 C11.6889163,14.947032 11.5513204,14.7578377 11.4462125,14.5564127 C10.9929108,13.6895592 11.12936,12.5907038 11.8578533,11.8618283 L11.8662619,11.8530374 C12.7610168,10.9678377 14.2069194,10.9678377 15.1016743,11.8530374 L16.8636649,10.0902823 C15.3955943,8.630238 13.2185229,8.31644313 11.4462125,9.14966214 C10.956983,9.37860627 10.499477,9.69545882 10.0958626,10.0994554 C9.58293603,10.612382 9.21066295,11.2124525 8.97980777,11.8530374 C8.78793807,12.3797235 8.69238543,12.9350755 8.69238543,13.4896631 C8.69238543,14.7165589 9.16059337,15.9430726 10.0958626,16.8783419 L13.8545213,20.6385294 C13.9294346,20.7134427 14.0505952,20.7134427 14.1255085,20.6385294 L15.6165119,19.1471437 Z"/>
    <path fill="#46AEE2" fill-rule="nonzero" d="M14.7238591,11.8625545 C14.6741718,11.7207543 14.6164581,11.5808653 14.5514822,11.442505 C14.3233025,10.9528934 14.0060677,10.4942407 13.601689,10.0906263 C13.1999857,9.6881586 12.7440085,9.37168826 12.2570722,9.14274413 C12.1240629,9.07929718 11.9876138,9.02387665 11.8507823,8.97380706 C10.1591185,8.36035911 8.19379175,8.72957452 6.834651,10.0822177 L8.59625948,11.8442083 C8.76290328,11.6794756 8.94903982,11.5449375 9.14626047,11.4417407 C10.0146429,10.9880567 11.1127338,11.1252703 11.8404627,11.8529992 L11.8488714,11.8617901 C12.574307,12.5952521 12.7054052,13.6994584 12.2406371,14.566312 C12.1393514,14.7577995 12.0086353,14.9370563 11.8488714,15.0983491 L13.6112442,16.8614864 C14.9566254,15.5076966 15.3285163,13.5500141 14.7238591,11.8625545 M4.82372659,15.6182319 L6.83491855,13.6062754 L5.07331009,11.8442848 L3.06211812,13.855859 C2.98720485,13.9303901 2.98720485,14.051933 3.06211812,14.1268463 L4.5527393,15.6182319 C4.62765257,15.6931452 4.74881332,15.6931452 4.82372659,15.6182319"/>
    <g transform="translate(0 14.524)">
      <mask id="chainx-logo-white-d" fill="#fff">
        <use xlink:href="#chainx-logo-white-c"/>
      </mask>
      <path fill="#46AEE2" fill-rule="nonzero" d="M6.41880592,6.00643894 C5.52175773,6.90386934 4.0620956,6.90386934 3.16619406,6.00643894 C2.26914588,5.10900855 2.26914588,3.64972864 3.16619406,2.75229824 L3.73950989,2.1789824 C3.81442317,2.10406913 3.81442317,1.98252618 3.73950989,1.9076129 L2.24888871,0.4162273 C2.17397545,0.34131403 2.05243249,0.34131403 1.97751921,0.4162273 L1.40382117,0.99030756 C-0.467863947,2.8627571 -0.467863947,5.89712672 1.40382117,7.76957626 C2.34023704,8.7052277 3.56560409,9.17420007 4.79135335,9.17305762 C6.01824925,9.17305762 7.24476294,8.7052277 8.18117881,7.76957626 L11.8488714,4.09959046 L10.0872629,2.33721757 L6.41880592,6.00643894 Z" mask="url(#chainx-logo-white-d)"/>
    </g>
    <path fill="#FFF" fill-rule="nonzero" d="M41.5211766,21.129326 C40.116935,22.058862 38.4661676,22.5236301 36.5684921,22.5236301 C34.7285305,22.5236301 33.1308904,22.1268955 31.7755717,21.332662 C30.4198709,20.5388107 29.3741428,19.3963833 28.6383875,17.9049976 C27.9022499,16.4139943 27.5345634,14.6615588 27.5345634,12.6473092 C27.5345634,10.6334418 27.9022499,8.88100634 28.6383875,7.38962074 C29.3741428,5.89861734 30.4198709,4.75618998 31.7755717,3.96195644 C33.1308904,3.16810511 34.7189752,2.77098834 36.5394442,2.77098834 C38.4566124,2.77098834 40.0687764,3.16810511 41.3759366,3.96195644 C42.5588782,4.6808945 43.4444601,5.70865869 44.0326822,7.04563124 C44.1354968,7.27992631 44.0357399,7.55358907 43.801827,7.65793255 L41.873957,8.51675968 C41.5544289,8.65932422 41.1844491,8.50873326 41.0445601,8.18882302 C40.6757268,7.34566653 40.1910838,6.70699268 39.5894844,6.27127264 C38.8533468,5.73885333 37.8947629,5.47245257 36.7137321,5.47245257 C34.912756,5.47245257 33.4748799,6.1069221 32.4001038,7.37509674 C31.3253277,8.64365359 30.7879397,10.4010577 30.7879397,12.6473092 C30.7879397,14.9130534 31.3008662,16.6754263 32.3274838,17.9340457 C33.3537192,19.1930473 34.7770713,19.8221658 36.5975402,19.8221658 C37.8366668,19.8221658 38.8778083,19.5129575 39.7202004,18.8926297 C40.4276722,18.3728234 40.9673534,17.64777 41.3400088,16.7178517 C41.4634628,16.4109366 41.803248,16.2515548 42.1170429,16.3558982 L44.0514105,17.0010697 C44.3040517,17.085156 44.4275057,17.3649341 44.3288954,17.6126066 C43.7326469,19.112783 42.7966132,20.2850229 41.5211766,21.129326 M58.6301444,8.81308753 C59.6468244,9.74262361 60.1551644,11.0788317 60.1551644,12.8217119 L60.1551644,21.6064394 C60.1551644,21.95234 59.8746219,22.2332647 59.5283391,22.2332647 L57.6742358,22.2332647 C57.327953,22.2332647 57.0470282,21.95234 57.0470282,21.6064394 L57.0470282,13.8093439 C57.0470282,11.2531198 56.0108554,9.97500762 53.9388919,9.97500762 C52.8541784,9.97500762 51.9246422,10.3526317 51.1502837,11.1078797 C50.3755429,11.8631278 49.9883635,13.0154926 49.9883635,14.564592 L49.9883635,21.6064394 C49.9883635,21.95234 49.707821,22.2332647 49.3615383,22.2332647 L47.5070526,22.2332647 C47.1611521,22.2332647 46.8802273,21.95234 46.8802273,21.6064394 L46.8802273,1.80028818 C46.8802273,1.45400541 47.1611521,1.17346286 47.5070526,1.17346286 L49.3615383,1.17346286 C49.707821,1.17346286 49.9883635,1.45400541 49.9883635,1.80028818 L49.9883635,10.0331036 C50.4722421,9.14255303 51.116267,8.48400424 51.9200558,8.05783947 C52.7234623,7.63205689 53.6484119,7.4187834 54.6941399,7.4187834 C56.3013354,7.4187834 57.6134642,7.88355144 58.6301444,8.81308753 M70.8735716,19.415532 C71.6674229,18.9121607 72.0645397,18.2440566 72.0645397,17.4112199 L72.0645397,15.6683397 L68.8983075,16.3073958 C67.8911827,16.5011765 67.1454898,16.7721638 66.6616112,17.1207399 C66.1773505,17.4693159 65.9354112,17.9340838 65.9354112,18.515044 C65.9354112,19.0574007 66.1242232,19.4690415 66.5018473,19.749584 C66.8794713,20.0305088 67.4168593,20.1707801 68.1140113,20.1707801 C69.1597394,20.1707801 70.0793381,19.9192855 70.8735716,19.415532 M77.2645144,20.6787379 L77.156731,21.7840909 C77.1322695,22.0355854 76.9610393,22.2500055 76.7194821,22.325301 C76.296375,22.4575459 75.8293137,22.5236683 75.317916,22.5236683 C74.4850792,22.5236683 73.8219438,22.3589356 73.3281278,22.0298522 C72.8343118,21.7007689 72.509815,21.1488569 72.3550198,20.3741161 C71.9093622,21.0521576 71.2511957,21.5796081 70.3797556,21.9572322 C69.5083156,22.3348562 68.5302387,22.5236683 67.4459074,22.5236683 C66.0321105,22.5236683 64.8896831,22.194585 64.018243,21.5360362 C63.146803,20.8778696 62.7110829,19.938396 62.7110829,18.71838 C62.7110829,17.5759526 63.1854062,16.6123998 64.134435,15.8281036 C65.0830817,15.0438076 66.4968786,14.4873091 68.3754434,14.1578436 L71.5435868,13.6093714 C71.8447687,13.5570085 72.0645397,13.2959587 72.0645397,12.9905725 L72.0645397,12.7344914 C72.0645397,11.8439408 71.8031077,11.14182 71.2802436,10.6285112 C70.7573797,10.1155847 70.0311795,9.85873918 69.1016435,9.85873918 C67.4241214,9.85873918 66.2579969,10.5260788 65.6036524,11.8603759 C65.4465639,12.1806683 65.0670288,12.3209396 64.7517051,12.1535314 L63.5469774,11.5152397 C63.1276924,11.2927932 63.0088249,10.9625633 63.1292213,10.6778164 C63.5186938,9.75668895 64.1684517,9.00946731 65.0784951,8.43538705 C66.1532713,7.75772773 67.4749553,7.41870696 69.0435475,7.41870696 C70.9217302,7.41870696 72.4131157,7.854427 73.5169398,8.72586707 C74.6207639,9.59730715 75.172676,10.8754192 75.172676,12.5602034 L75.172676,19.125052 C75.172676,19.4931207 75.2548513,19.7641081 75.419584,19.938396 C75.5839346,20.1126841 75.8598906,20.1998281 76.2474521,20.1998281 C76.4362641,20.1998281 76.6113165,20.1925661 76.7737561,20.1772776 C77.0581207,20.1505229 77.2920336,20.3943732 77.2645144,20.6787379 M81.576958,22.2331882 L79.7190324,22.2331882 C79.3738962,22.2331882 79.0937359,21.9534101 79.0937359,21.608274 L79.0937359,8.33448346 C79.0937359,7.98896512 79.3738962,7.70918698 79.7190324,7.70918698 L81.576958,7.70918698 C81.922094,7.70918698 82.2018722,7.98896512 82.2018722,8.33448346 L82.2018722,21.608274 C82.2018722,21.9534101 81.922094,22.2331882 81.576958,22.2331882 M79.1227839,4.76081473 C78.7547151,4.42217617 78.5708718,3.94288413 78.5708718,3.3229386 C78.5708718,2.70337528 78.7547151,2.22905198 79.1227839,1.89958648 C79.4904704,1.57050319 80.0037792,1.40577043 80.662328,1.40577043 C81.3204946,1.40577043 81.8288347,1.57050319 82.1873482,1.89958648 C82.5454795,2.22905198 82.7247362,2.70337528 82.7247362,3.3229386 C82.7247362,3.94288413 82.5454795,4.42217617 82.1873482,4.76081473 C81.8288347,5.09983549 81.3204946,5.26915477 80.662328,5.26915477 C80.0037792,5.26915477 79.4904704,5.09983549 79.1227839,4.76081473 M97.640618,8.81308753 C98.6572981,9.74262361 99.1656382,11.0788317 99.1656382,12.8217119 L99.1656382,21.7738476 C99.1656382,22.0276354 98.9600088,22.2332647 98.7066033,22.2332647 L96.5169189,22.2332647 C96.2631311,22.2332647 96.0575019,22.0276354 96.0575019,21.7738476 L96.0575019,13.8093439 C96.0575019,11.2531198 95.021329,9.97500762 92.9493656,9.97500762 C91.864652,9.97500762 90.9351159,10.3480451 90.1607574,11.0933557 C89.3860165,11.8390485 88.9988372,12.9864446 88.9988372,14.535544 L88.9988372,21.7738476 C88.9988372,22.0276354 88.793208,22.2332647 88.5394202,22.2332647 L86.350118,22.2332647 C86.0963302,22.2332647 85.890701,22.0276354 85.890701,21.7738476 L85.890701,8.16676947 C85.890701,7.91412829 86.0955658,7.70926343 86.3485892,7.70926343 L88.2195099,7.70926343 C88.4614492,7.70926343 88.6617275,7.89769324 88.6762515,8.13925031 L88.7955012,10.1202476 C89.2793798,9.21020429 89.9474839,8.53254497 90.7998134,8.08688747 C91.6517608,7.64161216 92.6199001,7.4187834 93.7046137,7.4187834 C95.311809,7.4187834 96.6239378,7.88355144 97.640618,8.81308753"/>
    <g transform="translate(101.668 2.293)">
      <mask id="chainx-logo-white-f" fill="#fff">
        <use xlink:href="#chainx-logo-white-e"/>
      </mask>
      <path fill="#F6C94A" fill-rule="nonzero" d="M17.3722726,18.9862713 L10.887306,9.72492726 L16.990062,1.00899766 C17.2828354,0.591623726 16.9812712,0.0179256753 16.4717845,0.0217099725 L13.789813,0.0423871511 C13.5868592,0.0435337827 13.3969006,0.143290739 13.2803263,0.309552332 L8.78782341,6.88472059 L4.29493828,0.309552332 C4.17836406,0.143290739 3.98878762,0.0435337827 3.78583381,0.0423871511 L1.10386232,0.0217099725 C0.594375641,0.0179256753 0.292811509,0.591623726 0.585202587,1.00899766 L6.6879586,9.72492726 L0.202992029,18.9862713 C-0.0909278921,19.4063208 0.215222766,19.9823121 0.727767127,19.9737178 L3.42846694,19.9261271 C3.62912748,19.9226872 3.81602845,19.8233125 3.93145604,19.6589619 L8.78782341,12.6178789 L13.6438086,19.6589619 C13.7592362,19.8233125 13.9461371,19.9226872 14.1471799,19.9261271 L16.8474975,19.9737178 C17.3600419,19.9823121 17.6665747,19.4063208 17.3722726,18.9862713" mask="url(#chainx-logo-white-f)"/>
    </g>
  </g>
</svg>
