<svg xmlns="http://www.w3.org/2000/svg" xmlns:xlink="http://www.w3.org/1999/xlink" width="160" height="33" viewBox="0 0 160 33">
  <defs>
    <polygon id="chainx-logo-a" points="0 0 20.006 0 20.006 20.015 0 20.015"/>
    <polygon id="chainx-logo-c" points="0 .48 15.798 .48 15.798 12.231 0 12.231"/>
    <polygon id="chainx-logo-e" points=".118 .029 23.316 .029 23.316 26.631 .118 26.631"/>
  </defs>
  <g fill="none" fill-rule="evenodd">
    <mask id="chainx-logo-b" fill="#fff">
      <use xlink:href="#chainx-logo-a"/>
    </mask>
    <path fill="#EA754B" fill-rule="nonzero" d="M18.1350756,9.10318535 L13.1235308,4.08960203 C13.0236465,3.98971766 12.8615892,3.98971766 12.7622144,4.08960203 L10.7742099,6.07811617 C10.6743255,6.17800052 10.6743255,6.3400578 10.7742099,6.43943255 L15.7363222,11.4040929 C16.9497133,12.617484 16.981819,14.6360655 15.748553,15.829072 C14.5499406,16.9879344 12.6322628,16.9757037 11.448939,15.7918702 L4.22057285,8.56095596 C3.03724896,7.37712246 3.02501822,5.45893505 4.18388063,4.25981313 C5.37586796,3.02552784 7.39393971,3.05763351 8.60682122,4.27153425 L9.32843477,4.9936574 C9.42831912,5.09354176 9.5903764,5.09354176 9.69026076,4.9936574 L11.6777557,3.00514327 C11.77764,2.90525891 11.77764,2.74320163 11.6777557,2.64331726 L10.9067096,1.87227117 C8.41163904,-0.623818595 4.36632247,-0.623818595 1.87125194,1.87227117 C-0.623818595,4.36785132 -0.623818595,8.41469672 1.87125194,10.9107865 L9.09961805,18.1422103 C11.5946886,20.6383001 15.6400051,20.6383001 18.1350756,18.1422103 C20.6301463,15.6461205 20.6301463,11.5992751 18.1350756,9.10318535" mask="url(#chainx-logo-b)"/>
    <path fill="#34C69A" fill-rule="nonzero" d="M29.7250759,1.87252597 C27.2294957,-0.624073402 23.1841791,-0.624073402 20.6896181,1.87252597 L15.7978327,6.76584037 L18.1354324,9.10344015 C18.1389997,9.10751707 18.142567,9.11159398 18.1466439,9.11516128 L23.0379198,4.22184689 C24.2344937,3.02680186 26.1802003,3.02680186 27.3752453,4.22184689 C28.5707999,5.41842074 28.5707999,7.36514653 27.3752453,8.56172038 L26.6052184,9.33174726 C26.5053341,9.43163162 26.5053341,9.5936889 26.6052184,9.69357325 L28.5932229,11.6820874 C28.6931073,11.7819717 28.8546549,11.7819717 28.9545393,11.6820874 L29.7250759,10.9110413 C32.2191271,8.41495153 32.2191271,4.36861573 29.7250759,1.87252597"/>
    <path fill="#34C69A" fill-rule="nonzero" d="M25.5207596,10.7778282 C25.4208753,10.6779438 25.2593276,10.6779438 25.1594433,10.7778282 L20.1463696,15.791921 C19.9216297,16.0166609 19.6698804,16.1996124 19.4018234,16.3402659 C18.2449994,16.946197 16.7808781,16.7632455 15.8095538,15.791921 C15.8059865,15.7883538 15.8008903,15.782748 15.7978327,15.7791808 C14.6185857,14.5866838 14.6185857,12.6572849 15.7978327,11.4647879 L13.4495309,9.11546704 C11.5022955,11.0713659 11.084412,13.9751469 12.1948611,16.3402659 C12.5001199,16.9920623 12.9230996,17.6046183 13.4607424,18.1427708 C14.1446445,18.826673 14.9457578,19.3225274 15.7978327,19.6318632 C16.5011001,19.8861606 17.2395309,20.0140737 17.9779617,20.0140737 C19.6138228,20.0140737 21.2481553,19.3903062 22.4962001,18.1427708 L27.5087641,13.1281683 C27.6086485,13.0282839 27.6086485,12.8667363 27.5087641,12.7668519 L25.5207596,10.7778282 Z"/>
    <path fill="#F6C94A" fill-rule="nonzero" d="M29.7248209,20.6969056 L24.8340546,15.8041009 L22.4847338,18.1539314 L27.3755001,23.0467361 C28.5598433,24.2315889 28.5710547,26.150286 27.4116826,27.3488982 C26.2191858,28.5821643 24.2021331,28.549549 22.9892517,27.3361578 L22.2676382,26.6140347 C22.1677538,26.5146599 22.0062061,26.5146599 21.9063218,26.6140347 L19.9183173,28.6030585 C19.818433,28.7024332 19.818433,28.8644905 19.9183173,28.9643748 L20.6093539,29.6559211 C23.1125783,32.1596551 27.2725581,32.2243761 29.7574363,29.7028057 C30.9835678,28.4583281 31.5961239,26.8372456 31.5961239,25.2171826 C31.5961239,23.5813213 30.9728658,21.9449505 29.7248209,20.6969056"/>
    <path fill="#F6C94A" fill-rule="nonzero" d="M20.8220159,25.529525 C20.9219002,25.4296406 20.9219002,25.268093 20.8220159,25.1682086 L15.8104711,20.1546254 C15.5852217,19.929376 15.4017605,19.6771169 15.2616167,19.4085503 C14.6572144,18.2527456 14.8391466,16.7876051 15.8104711,15.8157711 L15.8216825,15.8040499 C17.0146891,14.6237836 18.9425592,14.6237836 20.1355658,15.8040499 L22.4848866,13.4537098 C20.527459,11.506984 17.6246972,11.0885908 15.2616167,12.1995495 C14.6093106,12.5048084 13.9993026,12.9272784 13.4611501,13.4659405 C12.777248,14.1498426 12.2808839,14.9499367 11.973077,15.8040499 C11.7172508,16.5062981 11.5898472,17.2467674 11.5898472,17.9862175 C11.5898472,19.6220786 12.2141245,21.2574301 13.4611501,22.5044559 L18.472695,27.5180392 C18.5725794,27.6179236 18.734127,27.6179236 18.8340113,27.5180392 L20.8220159,25.529525 Z"/>
    <path fill="#46AEE2" fill-rule="nonzero" d="M19.6318122,15.8167393 C19.5655624,15.6276725 19.4886107,15.4411538 19.4019763,15.2566734 C19.0977367,14.6038579 18.6747569,13.9923209 18.1355853,13.4541684 C17.5999809,12.9175448 16.9920113,12.4955843 16.342763,12.1903255 C16.1654172,12.1057296 15.983485,12.0318355 15.8010431,11.9650761 C13.5454913,11.1471455 10.9250557,11.6394327 9.11286801,13.4429569 L11.4616793,15.7922778 C11.683871,15.5726341 11.9320531,15.39325 12.195014,15.2556543 C13.3528572,14.6507423 14.8169784,14.8336937 15.7872836,15.8039989 L15.7984952,15.8157201 C16.7657426,16.7936695 16.9405403,18.2659445 16.3208495,19.4217493 C16.1858019,19.6770659 16.0115138,19.916075 15.7984952,20.1311321 L18.1483256,22.4819819 C19.9421672,20.6769288 20.4380217,18.0666855 19.6318122,15.8167393 M6.43163545,20.8243092 L9.11322474,18.1417006 L6.76441345,15.7923798 L4.08282416,18.4744786 C3.9829398,18.5738534 3.9829398,18.7359107 4.08282416,18.8357951 L6.07031906,20.8243092 C6.17020343,20.9241935 6.33175109,20.9241935 6.43163545,20.8243092"/>
    <g transform="translate(0 19.366)">
      <mask id="chainx-logo-d" fill="#fff">
        <use xlink:href="#chainx-logo-c"/>
      </mask>
      <path fill="#46AEE2" fill-rule="nonzero" d="M8.5584079,8.00858526 C7.36234364,9.20515911 5.41612747,9.20515911 4.22159208,8.00858526 C3.02552784,6.8120114 3.02552784,4.86630485 4.22159208,3.66973099 L4.98601319,2.90530986 C5.08589755,2.80542551 5.08589755,2.64336823 4.98601319,2.54348387 L2.99851828,0.554969733 C2.89863393,0.455085373 2.73657665,0.455085373 2.63669229,0.554969733 L1.87176156,1.32041008 C-0.623818595,3.81700946 -0.623818595,7.86283563 1.87176156,10.359435 C3.12031605,11.6069703 4.75413879,12.2322668 6.38847114,12.2307435 C8.02433234,12.2307435 9.65968392,11.6069703 10.9082384,10.359435 L15.7984952,5.46612062 L13.4496838,3.1162901 L8.5584079,8.00858526 Z" mask="url(#chainx-logo-d)"/>
    </g>
    <path fill="#282828" fill-rule="nonzero" d="M55.3615687,28.1724346 C53.4892466,29.411816 51.2882234,30.0315068 48.7579895,30.0315068 C46.3047074,30.0315068 44.1745205,29.5025273 42.367429,28.4435493 C40.5598278,27.3850809 39.1655237,25.8618444 38.1845166,23.8733302 C37.2029999,21.8853257 36.7127512,19.5487451 36.7127512,16.8630789 C36.7127512,14.1779223 37.2029999,11.8413418 38.1845166,9.85282765 C39.1655237,7.86482312 40.5598278,6.34158665 42.367429,5.28260859 C44.1745205,4.22414014 46.291967,3.69465111 48.7192589,3.69465111 C51.2754832,3.69465111 53.4250352,4.22414014 55.1679154,5.28260859 C56.745171,6.24119267 57.9259468,7.61154492 58.7102429,9.39417498 C58.8473291,9.70656841 58.7143198,10.0714521 58.402436,10.2105767 L55.8319426,11.3556796 C55.4059052,11.5457656 54.9125987,11.3449777 54.7260801,10.9184307 C54.2343024,9.79422204 53.5881118,8.9426569 52.7859792,8.36169685 C51.8044625,7.65180444 50.5263505,7.29660343 48.9516428,7.29660343 C46.5503413,7.29660343 44.6331732,8.1425628 43.2001384,9.83346232 C41.7671036,11.5248715 41.0505862,13.868077 41.0505862,16.8630789 C41.0505862,19.8840712 41.7344883,22.2339017 43.1033117,23.9120609 C44.4716256,25.5907297 46.3694284,26.4295545 48.7967203,26.4295545 C50.4488891,26.4295545 51.8370778,26.0172767 52.9602672,25.1901729 C53.9035629,24.4970979 54.6231379,23.53036 55.1200117,22.2904689 C55.2846171,21.8812488 55.737664,21.6687398 56.1560572,21.8078643 L58.735214,22.668093 C59.0720689,22.780208 59.2366743,23.1532455 59.1051938,23.4834754 C58.3101958,25.4837107 57.062151,27.0466971 55.3615687,28.1724346 M78.1735258,11.7507834 C79.5290992,12.9901648 80.2068859,14.7717756 80.2068859,17.0956158 L80.2068859,28.8085858 C80.2068859,29.2697866 79.8328292,29.6443529 79.3711188,29.6443529 L76.898981,29.6443529 C76.4372706,29.6443529 76.0627042,29.2697866 76.0627042,28.8085858 L76.0627042,18.4124585 C76.0627042,15.0041597 74.6811405,13.3000102 71.9185225,13.3000102 C70.4722378,13.3000102 69.2328563,13.8035089 68.2003782,14.8105062 C67.1673906,15.8175037 66.6511514,17.3539901 66.6511514,19.419456 L66.6511514,28.8085858 C66.6511514,29.2697866 66.2770947,29.6443529 65.8153844,29.6443529 L63.3427368,29.6443529 C62.8815361,29.6443529 62.5069698,29.2697866 62.5069698,28.8085858 L62.5069698,2.40038424 C62.5069698,1.93867388 62.8815361,1.56461715 63.3427368,1.56461715 L65.8153844,1.56461715 C66.2770947,1.56461715 66.6511514,1.93867388 66.6511514,2.40038424 L66.6511514,13.3774715 C67.2963228,12.1900707 68.1550226,11.3120057 69.226741,10.743786 C70.2979497,10.1760759 71.5312158,9.8917112 72.9255199,9.8917112 C75.0684472,9.8917112 76.8179523,10.5114019 78.1735258,11.7507834 M94.4980955,25.887376 C95.5565639,25.2162143 96.0860529,24.3254088 96.0860529,23.2149598 L96.0860529,20.8911196 L91.86441,21.7431943 C90.5215769,22.0015686 89.5273197,22.3628851 88.8821483,22.8276531 C88.2364673,23.2924212 87.9138816,23.9121118 87.9138816,24.6867253 C87.9138816,25.4098676 88.1656309,25.958722 88.6691297,26.3327787 C89.1726284,26.7073451 89.8891457,26.8943735 90.8186818,26.8943735 C92.2129859,26.8943735 93.4391175,26.5590474 94.4980955,25.887376 M103.019353,27.5716505 L102.875641,29.0454545 C102.843026,29.3807805 102.614719,29.666674 102.292643,29.767068 C101.7285,29.9433945 101.105752,30.0315578 100.423888,30.0315578 C99.3134389,30.0315578 98.4292585,29.8119141 97.7708371,29.3731362 C97.1124157,28.9343586 96.6797533,28.1984758 96.4733597,27.1654882 C95.8791496,28.0695435 95.0015943,28.7728109 93.8396741,29.2763097 C92.6777541,29.7798083 91.3736516,30.0315578 89.9278765,30.0315578 C88.042814,30.0315578 86.5195775,29.5927799 85.3576573,28.7147149 C84.1957373,27.8371595 83.6147772,26.584528 83.6147772,24.95784 C83.6147772,23.4346035 84.2472083,22.1498664 85.5125801,21.1041382 C86.7774422,20.0584102 88.6625047,19.3164121 91.1672579,18.8771248 L95.391449,18.1458285 C95.7930249,18.0760114 96.0860529,17.727945 96.0860529,17.3207634 L96.0860529,16.9793219 C96.0860529,15.791921 95.737477,14.85576 95.0403249,14.1713483 C94.3431729,13.4874462 93.3749061,13.1449856 92.1355247,13.1449856 C89.8988285,13.1449856 88.3439959,14.0347717 87.4715366,15.8138345 C87.2620852,16.240891 86.7560383,16.4279194 86.3356068,16.2047085 L84.7293032,15.3536529 C84.1702565,15.0570576 84.0117666,14.6167511 84.172295,14.2370885 C84.6915917,13.0089186 85.5579356,12.0126231 86.7713268,11.2471827 C88.2043617,10.343637 89.9666071,9.89160928 92.0580633,9.89160928 C94.5623069,9.89160928 96.5508209,10.4725693 98.0225864,11.6344894 C99.4943519,12.7964095 100.230235,14.500559 100.230235,16.7469379 L100.230235,25.5000694 C100.230235,25.9908276 100.339802,26.3521441 100.559445,26.584528 C100.778579,26.8169121 101.146521,26.9331041 101.663269,26.9331041 C101.915019,26.9331041 102.148422,26.9234215 102.365008,26.9030368 C102.744161,26.8673639 103.056045,27.1924977 103.019353,27.5716505 M108.769277,29.6442509 L106.292043,29.6442509 C105.831862,29.6442509 105.458315,29.2712135 105.458315,28.8110321 L105.458315,11.1126446 C105.458315,10.6519535 105.831862,10.278916 106.292043,10.278916 L108.769277,10.278916 C109.229459,10.278916 109.602496,10.6519535 109.602496,11.1126446 L109.602496,28.8110321 C109.602496,29.2712135 109.229459,29.6442509 108.769277,29.6442509 M105.497045,6.34775298 C105.006287,5.8962349 104.761162,5.25717885 104.761162,4.4305848 C104.761162,3.60450038 105.006287,2.9720693 105.497045,2.53278198 C105.987294,2.09400426 106.671706,1.87436058 107.549771,1.87436058 C108.427326,1.87436058 109.105113,2.09400426 109.583131,2.53278198 C110.060639,2.9720693 110.299648,3.60450038 110.299648,4.4305848 C110.299648,5.25717885 110.060639,5.8962349 109.583131,6.34775298 C109.105113,6.79978066 108.427326,7.0255397 107.549771,7.0255397 C106.671706,7.0255397 105.987294,6.79978066 105.497045,6.34775298 M130.187491,11.7507834 C131.543064,12.9901648 132.220851,14.7717756 132.220851,17.0956158 L132.220851,29.0317968 C132.220851,29.3701806 131.946678,29.6443529 131.608804,29.6443529 L128.689225,29.6443529 C128.350842,29.6443529 128.076669,29.3701806 128.076669,29.0317968 L128.076669,18.4124585 C128.076669,15.0041597 126.695105,13.3000102 123.932487,13.3000102 C122.486203,13.3000102 121.246821,13.7973935 120.214343,14.791141 C119.181355,15.785398 118.665116,17.3152595 118.665116,19.3807254 L118.665116,29.0317968 C118.665116,29.3701806 118.390944,29.6443529 118.05256,29.6443529 L115.133491,29.6443529 C114.795107,29.6443529 114.520935,29.3701806 114.520935,29.0317968 L114.520935,10.889026 C114.520935,10.5521711 114.794088,10.2790179 115.131452,10.2790179 L117.626013,10.2790179 C117.948599,10.2790179 118.215637,10.5302577 118.235002,10.8523337 L118.394002,13.4936635 C119.039173,12.2802724 119.929979,11.3767266 121.066418,10.7825166 C122.202348,10.1888162 123.4932,9.8917112 124.939485,9.8917112 C127.082412,9.8917112 128.831917,10.5114019 130.187491,11.7507834"/>
    <g transform="translate(135.557 3.058)">
      <mask id="chainx-logo-f" fill="#fff">
        <use xlink:href="#chainx-logo-e"/>
      </mask>
      <path fill="#F6C94A" fill-rule="nonzero" d="M23.1630301,25.3150284 L14.516408,12.9665697 L22.653416,1.34533021 C23.0437805,0.788831634 22.6416949,0.0239009004 21.9623793,0.0289466301 L18.3864174,0.0565162014 C18.1158122,0.0580450436 17.8625341,0.191054318 17.7071018,0.412736443 L11.7170979,9.17962745 L5.72658437,0.412736443 C5.57115208,0.191054318 5.3183835,0.0580450436 5.04777841,0.0565162014 L1.47181643,0.0289466301 C0.792500854,0.0239009004 0.390415346,0.788831634 0.780270117,1.34533021 L8.91727813,12.9665697 L0.270656038,25.3150284 C-0.121237189,25.8750944 0.286963688,26.6430827 0.970356169,26.6316238 L4.57128926,26.5681695 C4.83883664,26.563583 5.08803793,26.4310833 5.24194138,26.2119492 L11.7170979,16.8238386 L18.1917448,26.2119492 C18.3456482,26.4310833 18.5948495,26.563583 18.8629065,26.5681695 L22.46333,26.6316238 C23.1467225,26.6430827 23.5554329,25.8750944 23.1630301,25.3150284" mask="url(#chainx-logo-f)"/>
    </g>
  </g>
</svg>
