<?xml version="1.0" encoding="UTF-8"?>
<svg width="32px" height="32px" viewBox="0 0 32 32" version="1.1" xmlns="http://www.w3.org/2000/svg" xmlns:xlink="http://www.w3.org/1999/xlink">
    <!-- Generator: Sketch 61.2 (89653) - https://sketch.com -->
    <title>邮件</title>
    <desc>Created with Sketch.</desc>
    <g id="组件" stroke="none" stroke-width="1" fill="none" fill-rule="evenodd">
        <g id="全局导航" transform="translate(-936.000000, -333.000000)" fill="#A0A0A0" fill-rule="nonzero">
            <g id="编组-20">
                <g id="编组-25" transform="translate(656.000000, 333.000000)">
                    <g id="邮件" transform="translate(280.000000, 0.000000)">
                        <path d="M16,0 C7.163444,0 0,7.163444 0,16 C0,24.836556 7.163444,32 16,32 C24.836556,32 32,24.836556 32,16 C32,11.7565362 30.3142906,7.68687356 27.3137085,4.6862915 C24.3131264,1.68570945 20.2434638,0 16,0 Z M25.3690248,9.27724666 L16.0076482,17.1548757 L6.6462715,9.27724666 L25.3690248,9.27724666 Z M6.57743784,9.94263863 L12.833652,15.2428298 L6.57743784,22.707457 L6.57743784,9.94263863 Z M7.34225622,22.707457 L13.3078394,15.6634799 L16.0458891,17.957935 L18.791587,15.6634799 L24.7571702,22.7762906 L7.34225622,22.707457 Z M25.4531549,22.707457 L19.2045889,15.250478 L25.414914,9.94263863 L25.4531549,22.707457 Z" id="形状"></path>
                    </g>
                </g>
            </g>
        </g>
    </g>
</svg>