<?xml version="1.0" encoding="UTF-8"?>
<svg width="32px" height="32px" viewBox="0 0 32 32" version="1.1" xmlns="http://www.w3.org/2000/svg" xmlns:xlink="http://www.w3.org/1999/xlink">
    <!-- Generator: Sketch 61.2 (89653) - https://sketch.com -->
    <title>github</title>
    <desc>Created with Sketch.</desc>
    <g id="组件" stroke="none" stroke-width="1" fill="none" fill-rule="evenodd">
        <g id="全局导航" transform="translate(-880.000000, -333.000000)" fill="#A0A0A0" fill-rule="nonzero">
            <g id="编组-20">
                <g id="编组-25" transform="translate(656.000000, 333.000000)">
                    <g id="github" transform="translate(224.000000, 0.000000)">
                        <path d="M1.2655625,9.8083125 C2.10890625,7.82946875 3.244375,6.12625 4.672,4.698625 C6.0985625,3.2720625 7.8018125,2.13659375 9.7816875,1.2921875 C11.7468313,0.452102704 13.8628314,0.0221735387 16,0.0286030127 C18.1667188,0.0286030127 20.2394688,0.44990625 22.2183125,1.29428125 C24.1981875,2.13765625 25.9014375,3.273125 27.328,4.70075 C28.755625,6.1273125 29.891125,7.8305625 30.7344375,9.8104375 C31.574968,11.7747702 32.0056155,13.8900242 32.0001074,16.026625 C32.0001074,19.5053125 30.98425,22.635125 28.9527813,25.4170625 C26.9223125,28.1979688 24.3127813,30.1303438 21.1251562,31.2131875 C20.9579375,31.2131875 20.8330313,31.18225 20.7504688,31.1202813 C20.6668438,31.0583438 20.6193437,30.995375 20.6090313,30.9324063 C20.5967914,30.8393479 20.5916203,30.745496 20.5935625,30.6516563 C20.5768149,30.6228401 20.566267,30.5908452 20.5625938,30.5577188 L20.5625938,26.5267813 C20.5625938,25.2570938 20.1145938,24.1732188 19.2185938,23.2772188 C21.6144375,22.8601875 23.4064375,21.970375 24.5935625,20.60575 C25.7806563,19.2410938 26.3752188,17.5895 26.3752188,15.6519375 C26.3752188,13.8392813 25.792,12.266125 24.6245313,10.9335 C25.0415625,9.5998125 24.9682813,8.193875 24.4067188,6.71465625 C23.8224375,6.67334375 23.187625,6.77246875 22.5001563,7.0119375 C21.8126563,7.25140625 21.3027188,7.47540625 20.9682813,7.682875 C20.635875,7.89140625 20.3334063,8.089625 20.0629688,8.27746875 C18.8542188,7.9440625 17.5050313,7.77684375 16.0165313,7.77684375 C14.5259063,7.77684375 13.188125,7.9440625 12,8.27746875 C11.7708438,8.11028125 11.5045313,7.92859375 11.203125,7.730375 C10.900625,7.5321875 10.3752188,7.29271875 9.62478125,7.0119375 C8.87534375,6.730125 8.19821875,6.610375 7.59328125,6.65271875 C7.0100625,8.15259375 6.948125,9.57915625 7.4064375,10.9334688 C6.26065625,12.2671563 5.68775,13.8392813 5.68775,15.6519063 C5.68775,17.5894688 6.27096875,19.2359375 7.4374375,20.5892188 C8.603875,21.9435625 10.395875,22.8395313 12.812375,23.2772188 C12.1937491,23.8710086 11.75999,24.6309905 11.5633438,25.465625 C9.792,25.90225 8.55225,25.5894688 7.844125,24.52625 C6.53109375,22.610375 5.3543125,21.9229063 4.31278125,22.4648438 C4.16621875,22.610375 4.187875,22.7610938 4.37471875,22.918 C4.56259375,23.073875 4.84334375,23.282375 5.21909375,23.5425313 C5.59378125,23.8036875 5.87459375,24.089625 6.0624375,24.402375 C6.08309375,24.4436875 6.140875,24.5954063 6.23484375,24.8555625 C6.32458689,25.1067904 6.41819173,25.3566221 6.515625,25.6049688 C6.60853125,25.8444375 6.7860625,26.1107813 7.04721875,26.4018438 C7.30734375,26.694 7.6098125,26.9386563 7.9535625,27.1368438 C8.2973125,27.334 8.77109375,27.4805938 9.37496875,27.5745313 C9.97884375,27.6674063 10.6663125,27.6725938 11.4374063,27.59 L11.4374063,30.730125 C11.4374063,30.7610938 11.43225,30.8127188 11.4219375,30.8870313 C11.411625,30.9592813 11.3909688,31.0109063 11.36,31.041875 C11.3290313,31.073875 11.2867188,31.1048438 11.2340625,31.1368438 C11.1720361,31.170256 11.1021385,31.1862998 11.03175,31.1832813 C10.948125,31.1832813 10.843875,31.1729688 10.7189688,31.1523438 C7.552,30.0478125 4.9744375,28.1154063 2.98428125,25.3551563 C0.9950625,22.5949063 0,19.4867813 0,16.02875 C0,13.8599375 0.4221875,11.7871562 1.2655625,9.8083125 Z" id="路径"></path>
                    </g>
                </g>
            </g>
        </g>
    </g>
</svg>