<?xml version="1.0" encoding="UTF-8"?>
<svg width="32px" height="32px" viewBox="0 0 32 32" version="1.1" xmlns="http://www.w3.org/2000/svg" xmlns:xlink="http://www.w3.org/1999/xlink">
    <!-- Generator: Sketch 61.2 (89653) - https://sketch.com -->
    <title>medium (1)</title>
    <desc>Created with Sketch.</desc>
    <g id="组件" stroke="none" stroke-width="1" fill="none" fill-rule="evenodd">
        <g id="全局导航" transform="translate(-712.000000, -333.000000)" fill="#A0A0A0" fill-rule="nonzero">
            <g id="编组-20">
                <g id="编组-25" transform="translate(656.000000, 333.000000)">
                    <g id="medium-(1)" transform="translate(56.000000, 0.000000)">
                        <path d="M16,0 C7.168,0 0,7.168 0,16 C0,24.832 7.168,32 16,32 C24.832,32 32,24.832 32,16 C32,7.168 24.832,0 16,0 Z M24,20.48 L24,22.352 L18.272,22.352 L18.272,20.48 L19.472,20.48 L19.472,12.192 L19.424,12.192 L16.624,22.368 L14.432,22.368 L11.68,12.192 L11.616,12.192 L11.616,20.48 L12.8,20.48 L12.8,22.352 L8,22.352 L8,20.48 L8.608,20.48 C8.736,20.48 8.864,20.416 8.992,20.304 C9.12,20.192 9.184,20.08 9.184,19.968 L9.184,12.08 C9.184,11.968 9.12,11.856 8.992,11.728 C8.864,11.6 8.736,11.536 8.608,11.536 L8,11.536 L8,9.648 L14,9.648 L15.968,17.008 L16.016,17.008 L18,9.648 L24,9.648 L24,11.52 L23.36,11.52 C23.248,11.52 23.12,11.584 22.992,11.712 C22.864,11.84 22.8,11.968 22.8,12.064 L22.8,19.952 C22.8,20.064 22.864,20.176 22.992,20.288 C23.12,20.4 23.248,20.464 23.36,20.464 L24,20.48 L24,20.48 Z" id="形状"></path>
                    </g>
                </g>
            </g>
        </g>
    </g>
</svg>