<?xml version="1.0" encoding="UTF-8"?>
<svg width="32px" height="32px" viewBox="0 0 32 32" version="1.1" xmlns="http://www.w3.org/2000/svg" xmlns:xlink="http://www.w3.org/1999/xlink">
    <!-- Generator: Sketch 61.2 (89653) - https://sketch.com -->
    <title>telegram</title>
    <desc>Created with Sketch.</desc>
    <g id="组件" stroke="none" stroke-width="1" fill="none" fill-rule="evenodd">
        <g id="全局导航" transform="translate(-768.000000, -333.000000)" fill="#A0A0A0" fill-rule="nonzero">
            <g id="编组-20">
                <g id="编组-25" transform="translate(656.000000, 333.000000)">
                    <g id="telegram" transform="translate(112.000000, 0.000000)">
                        <path d="M16,0 C7.16129032,0 0,7.16129032 0,16 C0,24.8387097 7.16129032,32 16,32 C24.8387097,32 32,24.8387097 32,16 C32,7.16129032 24.8387097,0 16,0 Z M23.8580645,10.9612903 L21.2322581,23.3354839 C21.0387097,24.2129032 20.516129,24.4258065 19.7870968,24.0129032 L15.7870968,21.0645161 L13.8580645,22.9225806 C13.6451613,23.1354839 13.4645161,23.316129 13.0516129,23.316129 L13.3354839,19.2451613 L20.7483871,12.5483871 C21.0709677,12.2645161 20.6774194,12.1032258 20.2516129,12.3870968 L11.0903226,18.1548387 L7.14193548,16.9225806 C6.28387097,16.6516129 6.26451613,16.0645161 7.32258065,15.6516129 L22.7483871,9.70322581 C23.4645161,9.44516129 24.0903226,9.87741935 23.8580645,10.9612903 Z" id="形状"></path>
                    </g>
                </g>
            </g>
        </g>
    </g>
</svg>