<?xml version="1.0" encoding="UTF-8"?>
<svg width="32px" height="32px" viewBox="0 0 32 32" version="1.1" xmlns="http://www.w3.org/2000/svg" xmlns:xlink="http://www.w3.org/1999/xlink">
    <!-- Generator: Sketch 61.2 (89653) - https://sketch.com -->
    <title>twitter</title>
    <desc>Created with Sketch.</desc>
    <g id="组件" stroke="none" stroke-width="1" fill="none" fill-rule="evenodd">
        <g id="全局导航" transform="translate(-656.000000, -333.000000)" fill="#A0A0A0" fill-rule="nonzero">
            <g id="编组-20">
                <g id="编组-25" transform="translate(656.000000, 333.000000)">
                    <g id="twitter">
                        <path d="M16,0 C7.163444,0 0,7.163444 0,16 C0,24.836556 7.163444,32 16,32 C24.836556,32 32,24.836556 32,16 C32,11.7565362 30.3142906,7.68687356 27.3137085,4.6862915 C24.3131264,1.68570945 20.2434638,0 16,0 Z M22.39,13.51 C22.39,13.65 22.39,13.79 22.39,13.94 C22.3880513,17.3559158 20.523438,20.4988997 17.5264526,22.1379737 C14.5294673,23.7770477 10.8771639,23.6513074 8,21.81 C9.73908051,22.0155747 11.4890573,21.5268748 12.87,20.45 C11.4646988,20.4238038 10.2312454,19.5077537 9.8,18.17 C10.0042778,18.2097436 10.211892,18.2298353 10.42,18.23 C10.7141456,18.2303021 11.0069195,18.1899195 11.29,18.11 C9.75632333,17.8009034 8.65244995,16.4545123 8.65,14.89 L8.65,14.89 C9.10706922,15.14303 9.61782512,15.2835735 10.14,15.3 C8.70076904,14.329599 8.26304837,12.4080052 9.14,10.91 C10.8099389,12.9662235 13.2744436,14.2166506 15.92,14.35 C15.5833816,12.901561 16.2601933,11.4073918 17.5709891,10.7051797 C18.881785,10.0029677 20.5006551,10.2673074 21.52,11.35 C22.2572905,11.2048183 22.9642101,10.934227 23.61,10.55 C23.3645138,11.3130468 22.8489042,11.9602258 22.16,12.37 C22.7975154,12.2747472 23.4175108,12.086053 24,11.81 C23.5679344,12.4672958 23.022846,13.042855 22.39,13.51 Z" id="形状"></path>
                    </g>
                </g>
            </g>
        </g>
    </g>
</svg>