<?xml version="1.0" encoding="UTF-8"?>
<svg width="32px" height="32px" viewBox="0 0 32 32" version="1.1" xmlns="http://www.w3.org/2000/svg"
     xmlns:xlink="http://www.w3.org/1999/xlink">
    <!-- Generator: Sketch 61.2 (89653) - https://sketch.com -->
    <title>wechat</title>
    <desc>Created with Sketch.</desc>
    <g id="组件" stroke="none" stroke-width="1" fill="none" fill-rule="evenodd">
        <g id="全局导航" transform="translate(-824.000000, -333.000000)" fill="#A0A0A0" fill-rule="nonzero">
            <g id="编组-20">
                <g id="编组-25" transform="translate(656.000000, 333.000000)">
                    <g id="wechat" transform="translate(168.000000, 0.000000)">
                        <path d="M16,32.0000072 C7.32009285,32.0028124 0.220964468,25.0843892 2.18125e-05,16.407294 L2.18125e-05,15.6363859 C0.199765371,6.84995254 7.44921968,-0.13055195 16.2369257,0.00186017583 C25.0246316,0.134272302 32.0604798,7.33002605 31.9954068,16.1184887 C31.9303339,24.9069513 24.7887032,31.9977299 16,32.0000072 L16,32.0000072 Z M12.6109137,5.80367209 C8.25740876,5.61225424 4.57232475,8.98482228 4.37819766,13.3382073 C4.43193322,15.7557094 5.66514014,17.9939528 7.68001134,19.3309264 L6.85092156,21.9927409 L9.71637222,20.4363794 C10.6617481,20.6901812 11.6327308,20.8365605 12.6109137,20.8727424 C12.8581861,20.8727424 13.1200039,20.858197 13.3672763,20.8436516 C13.2056335,20.2361622 13.1225322,19.6104577 13.1200039,18.9818359 C13.1122725,17.1301403 13.8404492,15.3512157 15.1443402,14.0364135 C16.4482312,12.7216113 18.2210259,11.9786357 20.0727217,11.9709364 L20.116358,11.9709364 C20.3790481,11.9758382 20.6412662,11.9952618 20.9018115,12.0291182 C19.9462465,8.26233328 16.4947371,5.67067358 12.6109137,5.80367209 L12.6109137,5.80367209 Z M20.6399937,12.4509357 C18.2125052,12.2442009 15.8755488,13.4223694 14.5981562,15.4969075 C13.3207637,17.5714455 13.3207637,20.1885902 14.5981562,22.2631283 C15.8755488,24.3376663 18.2125052,25.5158349 20.6399937,25.3091 C21.4802585,25.2662955 22.3114276,25.1147293 23.1127176,24.8581916 L25.36726,26.1963716 L24.7418062,23.97092 C26.4280585,22.8020621 27.4885611,20.9274364 27.6218023,18.8800179 C27.4036013,15.2074452 24.3180664,12.3661818 20.6399937,12.4509357 L20.6399937,12.4509357 Z M22.8945361,17.7745648 C22.4686206,17.6933157 22.1605237,17.3208892 22.1605237,16.8872933 C22.1605237,16.4536975 22.4686206,16.081271 22.8945361,16.0000218 C23.2436136,15.9469867 23.5913512,16.1035637 23.7830316,16.4000878 C23.9747119,16.6966118 23.9747119,17.0779748 23.7830316,17.3744989 C23.5913512,17.6710229 23.2436136,17.8275999 22.8945361,17.7745648 Z M18.3709058,17.7745648 C18.1441885,17.7967132 17.918246,17.7254268 17.7452898,17.5771787 C17.5723337,17.4289306 17.4673301,17.2165489 17.4545435,16.9891114 C17.3842965,16.5206193 17.7006235,16.081635 18.1672698,16.0000218 L18.3709058,16.0000218 C18.7199834,15.9469867 19.067721,16.1035637 19.2594013,16.4000878 C19.4510817,16.6966118 19.4510817,17.0779748 19.2594013,17.3744989 C19.067721,17.6710229 18.7199834,17.8275999 18.3709058,17.7745648 Z M15.6945459,11.7963912 C15.0478797,11.8174142 14.5009761,11.3219839 14.4581839,10.6763927 C14.5017936,10.0333359 15.0506351,9.54260707 15.6945459,9.57093969 C16.2710084,9.62204207 16.7129941,10.1049422 16.7129941,10.6836654 C16.7129941,11.2623886 16.2710084,11.7452888 15.6945459,11.7963912 Z M9.93455372,11.7963912 C9.50984542,11.8398795 9.09742166,11.6378141 8.87150725,11.2755559 C8.64559284,10.9132976 8.64559284,10.4540333 8.87150725,10.091775 C9.09742166,9.72951673 9.50984542,9.52745138 9.93455372,9.57093969 C10.5244303,9.59226427 10.9860856,10.0864305 10.9672796,10.6763927 C10.9862465,11.2689524 10.5267042,11.7673293 9.93455372,11.7963912 L9.93455372,11.7963912 Z"
                              id="形状"></path>
                    </g>
                </g>
            </g>
        </g>
    </g>
</svg>
